<svg width="30" height="30" viewBox="0 0 30 30" fill="none" xmlns="http://www.w3.org/2000/svg">
<path d="M15 0C12.0333 0 9.13319 0.879735 6.66645 2.52796C4.19972 4.17618 2.27713 6.51886 1.14181 9.25975C0.00649941 12.0006 -0.290551 15.0166 0.288228 17.9264C0.867006 20.8361 2.29562 23.5088 4.3934 25.6066C6.49119 27.7044 9.16394 29.133 12.0737 29.7118C14.9834 30.2906 17.9994 29.9935 20.7403 28.8582C23.4812 27.7229 25.8238 25.8003 27.4721 23.3336C29.1203 20.8668 30 17.9667 30 15C30 11.0218 28.4197 7.20644 25.6066 4.3934C22.7936 1.58035 18.9783 0 15 0ZM15 6.07C15.5304 6.07 16.0391 6.28071 16.4142 6.65579C16.7893 7.03086 17 7.53957 17 8.07C17 10.61 17.06 8.89 16.64 16.71C16.64 17.1529 16.4641 17.5777 16.1509 17.8909C15.8377 18.2041 15.4129 18.38 14.97 18.38C14.5271 18.38 14.1023 18.2041 13.7891 17.8909C13.476 17.5777 13.3 17.1529 13.3 16.71C12.88 8.95 12.94 10.71 12.94 8.07C12.9399 7.80223 12.9935 7.53716 13.0978 7.29052C13.202 7.04387 13.3547 6.82067 13.5468 6.63414C13.739 6.44762 13.9666 6.30157 14.2162 6.20467C14.4658 6.10776 14.7324 6.06197 15 6.07ZM15 23.93C14.5677 23.928 14.1457 23.7982 13.7871 23.5568C13.4285 23.3154 13.1493 22.9732 12.9848 22.5735C12.8203 22.1737 12.7778 21.7342 12.8626 21.3103C12.9474 20.8864 13.1558 20.4971 13.4615 20.1915C13.7671 19.8858 14.1564 19.6774 14.5803 19.5926C15.0042 19.5078 15.4437 19.5503 15.8435 19.7148C16.2432 19.8793 16.5854 20.1585 16.8268 20.5171C17.0682 20.8757 17.198 21.2977 17.2 21.73C17.2013 22.0193 17.1453 22.306 17.0352 22.5735C16.9251 22.841 16.7631 23.084 16.5586 23.2886C16.354 23.4931 16.111 23.6551 15.8435 23.7652C15.576 23.8753 15.2893 23.9313 15 23.93Z" fill="#a5afbe"/>
</svg>
